{
    "asset" : {
        "generator" : "Khronos glTF Blender I/O v1.8.19",
        "version" : "2.0"
    },
    "scene" : 0,
    "scenes" : [
        {
            "name" : "Scene",
            "nodes" : [
                0
            ]
        }
    ],
    "nodes" : [
        {
            "mesh" : 0,
            "name" : "Cube"
        }
    ],
    "materials" : [
        {
            "doubleSided" : true,
            "name" : "Phone",
            "pbrMetallicRoughness" : {
                "baseColorTexture" : {
                    "index" : 0
                },
                "metallicFactor" : 0,
                "metallicRoughnessTexture" : {
                    "index" : 1
                }
            }
        },
        {
            "doubleSided" : true,
            "emissiveFactor" : [
                0,
                1,
                0.003550546942278743
            ],
            "name" : "Screen",
            "pbrMetallicRoughness" : {
                "baseColorFactor" : [
                    0.008875991217792034,
                    0.8000000715255737,
                    0,
                    1
                ],
                "metallicFactor" : 0,
                "roughnessFactor" : 0
            }
        }
    ],
    "meshes" : [
        {
            "name" : "Cube.002",
            "primitives" : [
                {
                    "attributes" : {
                        "POSITION" : 0,
                        "NORMAL" : 1,
                        "TEXCOORD_0" : 2
                    },
                    "indices" : 3,
                    "material" : 0
                },
                {
                    "attributes" : {
                        "POSITION" : 4,
                        "NORMAL" : 5,
                        "TEXCOORD_0" : 6
                    },
                    "indices" : 7,
                    "material" : 1
                }
            ]
        }
    ],
    "textures" : [
        {
            "sampler" : 0,
            "source" : 0
        },
        {
            "sampler" : 0,
            "source" : 1
        }
    ],
    "images" : [
        {
            "bufferView" : 4,
            "mimeType" : "image/jpeg",
            "name" : "reference-front"
        },
        {
            "bufferView" : 5,
            "mimeType" : "image/png",
            "name" : "fingers"
        }
    ],
    "accessors" : [
        {
            "bufferView" : 0,
            "componentType" : 5126,
            "count" : 8116,
            "max" : [
                0.9677073955535889,
                2.3389978408813477,
                0.2906905710697174
            ],
            "min" : [
                -1.0396655797958374,
                -2.3400819301605225,
                -0.290680468082428
            ],
            "type" : "VEC3"
        },
        {
            "bufferView" : 1,
            "componentType" : 5126,
            "count" : 8116,
            "type" : "VEC3"
        },
        {
            "bufferView" : 2,
            "componentType" : 5126,
            "count" : 8116,
            "type" : "VEC2"
        },
        {
            "bufferView" : 3,
            "componentType" : 5123,
            "count" : 43776,
            "type" : "SCALAR"
        },
        {
            "bufferView" : 6,
            "componentType" : 5126,
            "count" : 697,
            "max" : [
                0.6587654948234558,
                1.2667012214660645,
                0.25294095277786255
            ],
            "min" : [
                -0.7307334542274475,
                0.1637415736913681,
                0.2433772087097168
            ],
            "type" : "VEC3"
        },
        {
            "bufferView" : 7,
            "componentType" : 5126,
            "count" : 697,
            "type" : "VEC3"
        },
        {
            "bufferView" : 8,
            "componentType" : 5126,
            "count" : 697,
            "type" : "VEC2"
        },
        {
            "bufferView" : 9,
            "componentType" : 5123,
            "count" : 3840,
            "type" : "SCALAR"
        }
    ],
    "bufferViews" : [
        {
            "buffer" : 0,
            "byteLength" : 97392,
            "byteOffset" : 0
        },
        {
            "buffer" : 0,
            "byteLength" : 97392,
            "byteOffset" : 97392
        },
        {
            "buffer" : 0,
            "byteLength" : 64928,
            "byteOffset" : 194784
        },
        {
            "buffer" : 0,
            "byteLength" : 87552,
            "byteOffset" : 259712
        },
        {
            "buffer" : 0,
            "byteLength" : 165933,
            "byteOffset" : 347264
        },
        {
            "buffer" : 0,
            "byteLength" : 63589,
            "byteOffset" : 513200
        },
        {
            "buffer" : 0,
            "byteLength" : 8364,
            "byteOffset" : 576792
        },
        {
            "buffer" : 0,
            "byteLength" : 8364,
            "byteOffset" : 585156
        },
        {
            "buffer" : 0,
            "byteLength" : 5576,
            "byteOffset" : 593520
        },
        {
            "buffer" : 0,
            "byteLength" : 7680,
            "byteOffset" : 599096
        }
    ],
    "samplers" : [
        {
            "magFilter" : 9729,
            "minFilter" : 9987
        }
    ],
    "buffers" : [
        {
            "byteLength" : 606776,
            "uri" : "data:application/octet-stream;base64,"
        }
    ]
}
